<mxfile host="app.diagrams.net" modified="2023-06-04T12:26:36.728Z" agent="Mozilla/5.0 (Macintosh; Intel Mac OS X 10_15_7) AppleWebKit/605.1.15 (KHTML, like Gecko) Version/16.5 Safari/605.1.15" etag="tXjiGZSEJm7zT67_1jbP" version="21.3.7" type="github">
  <diagram name="Page-1" id="W_1ussPjDrloGAP4tbgf">
    <mxGraphModel dx="857" dy="723" grid="1" gridSize="10" guides="1" tooltips="1" connect="1" arrows="1" fold="1" page="1" pageScale="1" pageWidth="827" pageHeight="1169" math="0" shadow="0">
      <root>
        <mxCell id="0" />
        <mxCell id="1" parent="0" />
        <mxCell id="mqSrBfW8od89UjhQ3UT6-6" style="edgeStyle=orthogonalEdgeStyle;rounded=0;orthogonalLoop=1;jettySize=auto;html=1;entryX=0.5;entryY=0;entryDx=0;entryDy=0;" parent="1" source="mqSrBfW8od89UjhQ3UT6-1" target="mqSrBfW8od89UjhQ3UT6-2" edge="1">
          <mxGeometry relative="1" as="geometry" />
        </mxCell>
        <mxCell id="mqSrBfW8od89UjhQ3UT6-1" value="main" style="rounded=0;whiteSpace=wrap;html=1;" parent="1" vertex="1">
          <mxGeometry x="200" y="40" width="120" height="60" as="geometry" />
        </mxCell>
        <mxCell id="mqSrBfW8od89UjhQ3UT6-8" style="edgeStyle=orthogonalEdgeStyle;rounded=0;orthogonalLoop=1;jettySize=auto;html=1;entryX=0.5;entryY=0;entryDx=0;entryDy=0;exitX=0.5;exitY=1;exitDx=0;exitDy=0;" parent="1" source="MWwaN0o0Bd8Kgyd7xj5W-1" target="mqSrBfW8od89UjhQ3UT6-4" edge="1">
          <mxGeometry relative="1" as="geometry">
            <Array as="points">
              <mxPoint x="414" y="420" />
              <mxPoint x="568" y="420" />
            </Array>
            <mxPoint x="414" y="290" as="sourcePoint" />
          </mxGeometry>
        </mxCell>
        <mxCell id="mqSrBfW8od89UjhQ3UT6-9" style="edgeStyle=orthogonalEdgeStyle;rounded=0;orthogonalLoop=1;jettySize=auto;html=1;entryX=0.5;entryY=0;entryDx=0;entryDy=0;exitX=1;exitY=0.5;exitDx=0;exitDy=0;" parent="1" source="MWwaN0o0Bd8Kgyd7xj5W-1" target="mqSrBfW8od89UjhQ3UT6-5" edge="1">
          <mxGeometry relative="1" as="geometry">
            <mxPoint x="414" y="270" as="sourcePoint" />
            <Array as="points">
              <mxPoint x="714" y="270" />
            </Array>
          </mxGeometry>
        </mxCell>
        <mxCell id="MWwaN0o0Bd8Kgyd7xj5W-2" style="edgeStyle=orthogonalEdgeStyle;rounded=0;orthogonalLoop=1;jettySize=auto;html=1;" edge="1" parent="1" source="mqSrBfW8od89UjhQ3UT6-2" target="MWwaN0o0Bd8Kgyd7xj5W-1">
          <mxGeometry relative="1" as="geometry" />
        </mxCell>
        <mxCell id="mqSrBfW8od89UjhQ3UT6-2" value="ConversionScreen" style="rounded=0;whiteSpace=wrap;html=1;" parent="1" vertex="1">
          <mxGeometry x="200" y="170" width="120" height="60" as="geometry" />
        </mxCell>
        <mxCell id="MWwaN0o0Bd8Kgyd7xj5W-5" style="edgeStyle=orthogonalEdgeStyle;rounded=0;orthogonalLoop=1;jettySize=auto;html=1;exitX=0.5;exitY=1;exitDx=0;exitDy=0;" edge="1" parent="1" source="mqSrBfW8od89UjhQ3UT6-3" target="mqSrBfW8od89UjhQ3UT6-10">
          <mxGeometry relative="1" as="geometry" />
        </mxCell>
        <mxCell id="MWwaN0o0Bd8Kgyd7xj5W-6" style="edgeStyle=orthogonalEdgeStyle;rounded=0;orthogonalLoop=1;jettySize=auto;html=1;entryX=0.5;entryY=0;entryDx=0;entryDy=0;" edge="1" parent="1" source="mqSrBfW8od89UjhQ3UT6-3" target="mqSrBfW8od89UjhQ3UT6-12">
          <mxGeometry relative="1" as="geometry">
            <Array as="points">
              <mxPoint x="414" y="600" />
              <mxPoint x="568" y="600" />
            </Array>
          </mxGeometry>
        </mxCell>
        <mxCell id="mqSrBfW8od89UjhQ3UT6-3" value="CurrencyCard" style="rounded=0;whiteSpace=wrap;html=1;" parent="1" vertex="1">
          <mxGeometry x="354" y="500" width="120" height="60" as="geometry" />
        </mxCell>
        <mxCell id="mqSrBfW8od89UjhQ3UT6-4" value="CurrencyCard" style="rounded=0;whiteSpace=wrap;html=1;" parent="1" vertex="1">
          <mxGeometry x="508" y="500" width="120" height="60" as="geometry" />
        </mxCell>
        <mxCell id="mqSrBfW8od89UjhQ3UT6-5" value="CurrencyCard" style="rounded=0;whiteSpace=wrap;html=1;" parent="1" vertex="1">
          <mxGeometry x="654" y="500" width="120" height="60" as="geometry" />
        </mxCell>
        <mxCell id="mqSrBfW8od89UjhQ3UT6-10" value="Text Input Field" style="rounded=0;whiteSpace=wrap;html=1;" parent="1" vertex="1">
          <mxGeometry x="354" y="670" width="120" height="60" as="geometry" />
        </mxCell>
        <mxCell id="mqSrBfW8od89UjhQ3UT6-15" style="edgeStyle=orthogonalEdgeStyle;rounded=0;orthogonalLoop=1;jettySize=auto;html=1;exitX=0.5;exitY=1;exitDx=0;exitDy=0;entryX=0.5;entryY=0;entryDx=0;entryDy=0;" parent="1" source="mqSrBfW8od89UjhQ3UT6-12" target="mqSrBfW8od89UjhQ3UT6-14" edge="1">
          <mxGeometry relative="1" as="geometry" />
        </mxCell>
        <mxCell id="mqSrBfW8od89UjhQ3UT6-12" value="GestureDetector" style="rounded=0;whiteSpace=wrap;html=1;" parent="1" vertex="1">
          <mxGeometry x="508" y="670" width="120" height="60" as="geometry" />
        </mxCell>
        <mxCell id="mqSrBfW8od89UjhQ3UT6-14" value="CircleAvatar" style="rounded=0;whiteSpace=wrap;html=1;" parent="1" vertex="1">
          <mxGeometry x="508" y="760" width="120" height="60" as="geometry" />
        </mxCell>
        <mxCell id="MWwaN0o0Bd8Kgyd7xj5W-3" style="edgeStyle=orthogonalEdgeStyle;rounded=0;orthogonalLoop=1;jettySize=auto;html=1;" edge="1" parent="1" source="MWwaN0o0Bd8Kgyd7xj5W-1" target="mqSrBfW8od89UjhQ3UT6-3">
          <mxGeometry relative="1" as="geometry" />
        </mxCell>
        <mxCell id="MWwaN0o0Bd8Kgyd7xj5W-1" value="ConversionContainer" style="rounded=0;whiteSpace=wrap;html=1;" vertex="1" parent="1">
          <mxGeometry x="354" y="240" width="120" height="60" as="geometry" />
        </mxCell>
        <mxCell id="MWwaN0o0Bd8Kgyd7xj5W-7" value="Container" style="rounded=0;whiteSpace=wrap;html=1;" vertex="1" parent="1">
          <mxGeometry x="354" y="330" width="120" height="60" as="geometry" />
        </mxCell>
      </root>
    </mxGraphModel>
  </diagram>
</mxfile>
